<svg width="28" height="28" viewBox="0 0 10 7" fill="none" xmlns="http://www.w3.org/2000/svg">
<path d="M1.87501 2.93124e-07C1.79852 -9.53241e-05 1.72383 0.023204 1.66095 0.0667726C1.59808 0.110341 1.55004 0.172095 1.52326 0.24375L1.02076 1.5H4.50001V2.93124e-07H1.87501ZM5.25001 2.93124e-07V1.5H8.72926L8.22676 0.24375C8.20004 0.172215 8.1521 0.110545 8.08938 0.0669865C8.02666 0.023428 7.95213 5.75522e-05 7.87576 2.93124e-07H5.25001ZM0.720763 2.25L0.0300134 3.978C0.00573773 4.03497 -0.00405101 4.09707 0.00152129 4.15874C0.0070936 4.22042 0.0278535 4.27976 0.0619472 4.33145C0.0960408 4.38315 0.142407 4.4256 0.196905 4.45501C0.251403 4.48442 0.312336 4.49988 0.374263 4.5H4.50001V2.25H0.720763ZM5.25001 2.25V4.5H9.37501C9.437 4.5 9.49803 4.48464 9.55263 4.45528C9.60722 4.42592 9.65369 4.38348 9.68787 4.33177C9.72205 4.28005 9.74288 4.22067 9.74849 4.15893C9.7541 4.09719 9.74431 4.03503 9.72001 3.978L9.02926 2.25H5.25001ZM3.75001 5.25V6H1.12501C1.02556 5.9999 0.930135 6.03931 0.859738 6.10957C0.789342 6.17983 0.749738 6.27517 0.749638 6.37463C0.749539 6.47408 0.788952 6.5695 0.859208 6.6399C0.929464 6.7103 1.02481 6.7499 1.12426 6.75H8.62501C8.72447 6.7501 8.81989 6.71069 8.89029 6.64043C8.96068 6.57017 9.00029 6.47483 9.00039 6.37537C9.00049 6.27592 8.96107 6.1805 8.89082 6.1101C8.82056 6.0397 8.72522 6.0001 8.62576 6H6.00001V5.25H3.75001Z" fill="black"/>
</svg>
